:FULLY-SPECIFIED
:DEGREES
67
root 9.26309 16.4212 -25.9937 4.68441 -9.14444 1.71092
lfemur -18.7514 4.16968 -26.012
ltibia 27.6484
lfoot -14.6648 8.96611
ltoes 4.28351
rfemur -18.0946 -0.292039 17.9278
rtibia 64.067
rfoot -11.8753 -11.7492
rtoes -12.2139
lowerback -5.00705 -0.636814 -3.17767
upperback -1.79372 -0.734942 2.58321
thorax 1.033 -0.35958 4.41115
lowerneck -22.3394 -3.96916 -11.6375
upperneck 18.995 -4.60137 12.3469
head 10.3359 -1.5324 5.68687
lclavicle 2.03754e-14 -1.66979e-14
lhumerus -30.4657 -10.7483 87.5904
lradius 23.8797
lwrist -1.73263
lhand 1.87372 -17.5296
lfingers 7.12502
lthumb 27.3838 10.5008
rclavicle 2.03754e-14 -1.66979e-14
rhumerus -43.5202 13.1569 -89.3958
rradius 39.8471
rwrist -21.559
rhand -29.9978 -23.2905
rfingers 7.12502
rthumb -3.31537 -53.2444
68
root 9.28042 16.4132 -25.8821 4.40152 -8.7893 2.04715
lfemur -18.0238 3.88511 -26.4974
ltibia 27.6029
lfoot -14.4334 9.13498
ltoes 1.38077
rfemur -18.8581 -0.367932 17.7739
rtibia 63.806
rfoot -12.8155 -11.9258
rtoes -12.958
lowerback -4.87212 -0.730273 -3.37297
upperback -1.66696 -0.851814 2.47124
thorax 1.10098 -0.421588 4.3988
lowerneck -22.3494 -3.9685 -11.2002
upperneck 19.0295 -4.60275 11.7497
head 10.3215 -1.56848 5.38771
lclavicle 2.09966e-14 -1.19271e-14
lhumerus -29.7175 -11.0078 87.42
lradius 24.3271
lwrist -1.45829
lhand 1.70812 -16.5265
lfingers 7.12502
lthumb 27.2254 11.5288
rclavicle 2.09966e-14 -1.19271e-14
rhumerus -43.5851 13.2014 -89.3385
rradius 40.056
rwrist -21.6821
rhand -30.5639 -24.1139
rfingers 7.12502
rthumb -3.86202 -54.0586
69
root 9.29735 16.4047 -25.77 4.16295 -8.34862 2.2238
lfemur -17.342 3.48232 -26.7937
ltibia 27.6131
lfoot -14.3364 9.38319
ltoes -0.163503
rfemur -19.5681 -0.41224 17.7893
rtibia 63.4136
rfoot -13.785 -12.1231
rtoes -12.1822
lowerback -4.72638 -0.886402 -3.48401
upperback -1.60316 -1.05879 2.4862
thorax 1.10846 -0.52644 4.4661
lowerneck -22.1461 -3.98694 -11.2899
upperneck 18.9816 -4.5972 11.6747
head 10.2661 -1.58716 5.37289
lclavicle -1.90833e-14 3.18055e-15
lhumerus -29.1007 -11.379 87.443
lradius 24.6947
lwrist -0.706152
lhand 0.942329 -14.7835
lfingers 7.12502
lthumb 26.4926 13.3844
rclavicle -1.90833e-14 3.18055e-15
rhumerus -43.7913 13.5024 -89.3005
rradius 40.2493
rwrist -22.0134
rhand -30.9242 -23.7411
rfingers 7.12502
rthumb -4.20999 -53.6793
70
root 9.30421 16.4007 -25.6577 4.23885 -8.12939 2.28199
lfemur -16.9752 3.1197 -26.9047
ltibia 27.5837
lfoot -14.9611 9.45336
ltoes 1.27045
rfemur -20.6665 -0.0440895 17.9459
rtibia 62.9596
rfoot -14.832 -12.3029
rtoes -10.6399
lowerback -4.89737 -0.98588 -3.71166
upperback -1.6151 -1.17795 2.60099
thorax 1.21046 -0.588223 4.70608
lowerneck -22.067 -4.01792 -11.5738
upperneck 19.139 -4.61309 11.8624
head 10.3226 -1.59702 5.49477
lclavicle -4.73356e-15 -2.38542e-14
lhumerus -28.4757 -11.7279 87.4952
lradius 25.1592
lwrist 0.231911
lhand -2.86671 -16.397
lfingers 7.12502
lthumb 22.8419 12.2704
rclavicle -4.73356e-15 -2.38542e-14
rhumerus -43.819 13.7655 -89.1808
rradius 40.1193
rwrist -22.1222
rhand -30.786 -22.9514
rfingers 7.12502
rthumb -4.07653 -52.8921
71
root 9.31007 16.3957 -25.5457 4.31647 -7.99718 2.34871
lfemur -16.593 2.93309 -27.0296
ltibia 27.5542
lfoot -15.7175 9.37339
ltoes 0.855284
rfemur -21.7996 0.477548 18.0593
rtibia 62.4649
rfoot -15.7965 -12.3331
rtoes -9.95646
lowerback -5.11087 -1.0495 -3.85034
upperback -1.57014 -1.25026 2.63018
thorax 1.38736 -0.629676 4.80774
lowerneck -22.1503 -3.98994 -11.7187
upperneck 19.2576 -4.57 12.0422
head 10.3834 -1.56541 5.59926
lclavicle 1.76546e-14 7.15625e-15
lhumerus -27.802 -12.1266 87.4087
lradius 25.7416
lwrist 1.08947
lhand -12.9232 -23.9751
lfingers 7.12502
lthumb 13.1672 5.58908
rclavicle 1.76546e-14 7.15625e-15
rhumerus -43.7285 13.9667 -89.107
rradius 39.9999
rwrist -22.1318
rhand -30.6628 -22.6642
rfingers 7.12502
rthumb -3.9575 -52.6072
72
root 9.31664 16.3923 -25.4345 4.2664 -7.74479 2.39087
lfemur -16.0539 2.83638 -27.1292
ltibia 27.479
lfoot -15.8584 9.20317
ltoes -0.122085
rfemur -22.8098 0.885291 18.1745
rtibia 61.9478
rfoot -16.5342 -12.4245
rtoes -11.279
lowerback -5.13439 -1.13951 -3.83401
upperback -1.51495 -1.36968 2.59403
thorax 1.4697 -0.692476 4.75176
lowerneck -22.2321 -3.94177 -11.6676
upperneck 19.3785 -4.5256 12.0615
head 10.4351 -1.53681 5.61002
lclavicle -1.65364e-14 3.10104e-14
lhumerus -27.2411 -12.5753 87.2277
lradius 26.2781
lwrist 1.59952
lhand -11.1125 -23.2429
lfingers 7.12502
lthumb 14.9121 6.20038
rclavicle -1.65364e-14 3.10104e-14
rhumerus -43.7673 14.0161 -89.1181
rradius 40.0907
rwrist -22.0167
rhand -30.631 -22.5415
rfingers 7.12502
rthumb -3.9268 -52.485
73
root 9.32359 16.3847 -25.3211 4.10147 -7.46086 2.50374
lfemur -15.3819 2.69433 -27.3161
ltibia 27.3581
lfoot -15.4155 9.28101
ltoes -0.941018
rfemur -23.6641 1.14515 18.1767
rtibia 61.3726
rfoot -17.074 -12.5931
rtoes -10.8607
lowerback -5.02824 -1.211 -3.90958
upperback -1.50296 -1.46382 2.56402
thorax 1.43427 -0.739042 4.75856
lowerneck -22.3555 -3.98132 -11.6757
upperneck 19.7455 -4.56661 11.9463
head 10.5931 -1.56725 5.5762
lclavicle -2.00524e-14 3.18055e-15
lhumerus -26.802 -13.014 87.1404
lradius 26.8783
lwrist 1.9389
lhand -10.0739 -22.9826
lfingers 7.12502
lthumb 15.9125 6.3837
rclavicle -2.00524e-14 3.18055e-15
rhumerus -43.8526 13.7666 -89.0045
rradius 40.0196
rwrist -21.7294
rhand -30.69 -23.203
rfingers 7.12502
rthumb -3.98376 -53.1455
